<svg width="731" height="390" viewBox="0 0 731 390" fill="none" xmlns="http://www.w3.org/2000/svg">
<path d="M43.389 135.302C51.4518 138.759 60.0957 140.526 68.8228 140.499C77.5315 140.551 86.1598 138.792 94.1993 135.327C102.235 131.864 109.518 126.768 115.622 120.344C121.881 113.986 126.85 106.398 130.242 98.0261C133.637 89.6475 135.384 80.6507 135.384 71.5644C135.384 62.4781 133.637 53.4814 130.242 45.1027C126.85 36.7302 121.88 29.1408 115.62 22.783C109.491 16.3648 102.196 11.2648 94.1532 7.78176C86.1039 4.29602 77.4671 2.5 68.7415 2.5C60.0158 2.5 51.379 4.29602 43.3298 7.78176C35.2835 11.2662 27.9864 16.3689 21.856 22.7908C15.6663 29.1849 10.776 36.7978 7.4686 45.178C4.15243 53.5799 2.46489 62.5767 2.50055 71.6533C2.477 80.6882 4.17093 89.6409 7.48718 97.9977C10.8045 106.357 15.6811 113.959 21.8409 120.362C28.001 126.765 35.3232 131.845 43.389 135.302ZM51.0779 27.6324L51.085 27.6293C56.6939 25.1588 62.7247 23.9062 68.8093 23.9453L68.8253 21.4454L68.8416 23.9453C74.9261 23.9056 80.9569 25.1582 86.5654 27.6292L86.5741 27.633C92.0007 29.9994 96.9409 33.4401 101.119 37.7692C105.296 42.1263 108.646 47.2727 110.985 52.9378L110.987 52.9431C113.438 58.8389 114.681 65.2048 114.634 71.6336L114.634 71.6498L114.634 71.6659C114.671 78.0348 113.428 84.3391 110.989 90.1745L110.985 90.1847C108.646 95.8511 105.297 100.999 101.12 105.358C96.9428 109.687 92.0031 113.128 86.5769 115.495C80.9485 117.931 74.9158 119.183 68.8255 119.183C62.7341 119.183 56.7004 117.93 51.0711 115.493C40.1128 110.729 31.3699 101.655 26.765 90.2058L26.7604 90.1946C24.3722 84.3385 23.1588 78.0333 23.1972 71.6667L23.1973 71.651L23.1972 71.6353C23.1356 62.2321 25.7617 53.0291 30.7322 45.1944C35.7021 37.3606 42.7875 31.2536 51.0779 27.6324Z" stroke="#FEA904" stroke-width="5"/>
<path d="M407.414 2.5H404.914V5V22.0513V24.5513H407.414H492.67H495.17V22.0513V5V2.5H492.67H407.414Z" stroke="white" stroke-width="5"/>
<path d="M407.414 60.4746H404.914V62.9746V80.0259V82.5259H407.414H492.67H495.17V80.0259V62.9746V60.4746H492.67H407.414Z" stroke="white" stroke-width="5"/>
<path d="M407.414 118.449H404.914V120.949V138V140.5H407.414H492.67H495.17V138V120.949V118.449H492.67H407.414Z" stroke="white" stroke-width="5"/>
<path d="M674.468 2.5H671.968V5V116.936L609.434 4.01868L608.72 2.72985H607.247H596.68H592.426L594.496 6.44614L668.43 139.216L669.145 140.5H670.614H683.641H686.141V138V5V2.5H683.641H674.468Z" stroke="white" stroke-width="5"/>
<path d="M598.786 49.6924L594.18 42.4838V51.0386V138V140.5H596.68H606.91H609.41V138V67.048V66.3174L609.017 65.7018L598.786 49.6924Z" stroke="white" stroke-width="5"/>
<path d="M294.038 5.38066L294.032 5.37775L294.025 5.37487C289.563 3.44656 284.762 2.46808 279.914 2.50079H238.602H236.102V5.00079V14.623V17.123H238.602H279.917C282.857 17.1369 285.768 17.7368 288.487 18.8908L288.487 18.8908L288.499 18.8957C291.11 19.9882 293.485 21.6057 295.483 23.6561C297.435 25.7305 299.037 28.1255 300.223 30.7439C301.429 33.4772 302.035 36.4507 301.997 39.454L301.996 39.5033L301.998 39.5526C302.08 42.6359 301.474 45.6959 300.228 48.4991C299.044 51.0712 297.46 53.4257 295.538 55.4706C293.565 57.557 291.192 59.1954 288.573 60.2844L288.571 60.285C285.848 61.4193 282.936 61.9977 279.998 61.9891H279.991H238.602H236.102V64.4891V138V140.5H238.602H248.004H250.504V138V136.17H250.506V133.67V76.6818H279.981C284.831 76.7218 289.635 75.7425 294.097 73.8061L294.104 73.8029L294.112 73.7997C298.388 71.9111 302.265 69.1981 305.532 65.812C308.841 62.4442 311.485 58.4603 313.322 54.0781L313.325 54.0711C315.196 49.5714 316.148 44.73 316.125 39.8435C316.177 34.819 315.226 29.835 313.331 25.1959L311.017 26.1414L313.322 25.1746C311.478 20.7765 308.836 16.7717 305.534 13.3727C302.24 9.98257 298.338 7.26849 294.038 5.38066Z" stroke="white" stroke-width="5"/>
<path d="M527.445 249.5H524.945V252V385V387.5H527.445H537.676H540.176V385V252V249.5H537.676H527.445Z" stroke="white" stroke-width="5"/>
<path d="M345.003 307.475L342.5 307.471V309.975V385V387.5H345H360.786H363.286V385V328.915H396.154H398.654V326.415V310.042V307.546L396.157 307.542L345.003 307.475Z" stroke="white" stroke-width="5"/>
<path d="M345 249.5H342.5V252V269.051V271.551H345H430.256H432.756V269.051V252V249.5H430.256H345Z" stroke="white" stroke-width="5"/>
<path d="M675.187 307.924H672.687V310.424V385V387.5H675.187H690.966H693.466V385V310.424V307.924H690.966H675.187ZM639.984 249.5H637.484V252V268.29V270.79H639.984H725.241H727.741V268.29V252V249.5H725.241H639.984Z" stroke="white" stroke-width="5"/>
</svg>
