<svg width="16" height="17" viewBox="0 0 16 17" fill="none" xmlns="http://www.w3.org/2000/svg">
<path d="M8 16.1127C5.99671 16.1127 4.11324 15.3036 2.69669 13.8344C1.28014 12.3653 0.5 10.4119 0.5 8.33421C0.5 6.25654 1.28014 4.30313 2.69669 2.83399C4.11324 1.36484 5.99671 0.555725 8 0.555725C10.0033 0.555725 11.8868 1.36484 13.3033 2.83399C14.7199 4.30313 15.5 6.25654 15.5 8.33421C15.5 10.4119 14.7199 12.3653 13.3033 13.8344C11.8868 15.3036 10.0033 16.1127 8 16.1127ZM8 1.77111C4.5107 1.77111 1.67188 4.71535 1.67188 8.33421C1.67188 11.9531 4.5107 14.8973 8 14.8973C11.4893 14.8973 14.3281 11.9531 14.3281 8.33421C14.3281 4.71535 11.4893 1.77111 8 1.77111ZM11.0867 11.5355L10.258 10.6761C9.01292 11.9674 6.98708 11.9674 5.74197 10.6761C4.49685 9.38474 4.49685 7.28369 5.74197 5.99234C6.98708 4.70098 9.01292 4.70098 10.258 5.99234L11.0867 5.1329C9.38462 3.36774 6.61526 3.36774 4.9133 5.1329C3.21133 6.89818 3.21133 9.77037 4.9133 11.5355C5.76428 12.4181 6.88214 12.8594 8 12.8594C9.11774 12.8594 10.2357 12.4181 11.0867 11.5355Z" fill="white"/>
</svg>
