<svg width="20" height="15" viewBox="0 0 20 15" fill="none" xmlns="http://www.w3.org/2000/svg">
<path d="M1.95652 0H18.0435C19.1224 0 20 0.87875 20 1.95652V12.5218C20 13.6007 19.1212 14.4783 18.0435 14.4783H1.95652C0.879259 14.4783 0 13.6012 0 12.5218V1.95652C0 0.879141 0.877228 0 1.95652 0ZM2.00926 1.30438C2.34105 1.63617 9.30891 9.60402 9.53883 9.83398C9.79379 10.0889 10.2062 10.0889 10.4612 9.83398C10.6913 9.60379 17.6591 1.63602 17.9907 1.30438H2.00926ZM18.6957 12.469V2.44406L14.1832 7.95652L18.6957 12.469ZM17.556 13.1739L13.2609 8.87883L11.3835 10.7562C10.6208 11.519 9.37945 11.5191 8.61656 10.7562L6.73918 8.87883L2.44406 13.1739H17.556ZM1.30434 12.469L5.81684 7.95652L1.30437 2.44406L1.30434 12.469Z" fill="white"/>
</svg>
