<svg width="26" height="26" viewBox="0 0 26 26" fill="none" xmlns="http://www.w3.org/2000/svg">
<path d="M12.1241 25.4077H12.2241V25.3077V16.421V16.321H12.1241H9.2944V13.5913H12.1241H12.2241V13.4913V9.82916C12.2241 7.86508 13.8221 6.26705 15.7862 6.26705H19.3483V8.99674H16.5186C15.6556 8.99674 14.9538 9.69859 14.9538 10.5616V13.4913V13.5913H15.0538H19.1981L18.7431 16.321H15.0538H14.9538V16.421V25.3077V25.4077H15.0538H21.6456C23.7201 25.4077 25.4077 23.7201 25.4077 21.6456V3.96979C25.4077 1.89525 23.7201 0.207678 21.6456 0.207678H3.96979C1.89525 0.207678 0.207678 1.89525 0.207678 3.96979V21.6456C0.207678 23.7201 1.89525 25.4077 3.96979 25.4077H12.1241ZM21.0453 11.9264H16.6186V10.6616H20.9131H21.0131V10.5616V4.70221V4.60221H20.9131H15.7862C12.9039 4.60221 10.5592 6.94686 10.5592 9.82916V11.9264H7.72955H7.62955V12.0264V17.8858V17.9858H7.72955H10.5592V23.7428H3.96979C2.81347 23.7428 1.87252 22.8019 1.87252 21.6456V3.96979C1.87252 2.81347 2.81347 1.87252 3.96979 1.87252H21.6456C22.8019 1.87252 23.7428 2.81347 23.7428 3.96979V21.6456C23.7428 22.8019 22.8019 23.7428 21.6456 23.7428H16.6186V17.9858H20.0688H20.1535L20.1674 17.9022L21.144 12.0429L21.1634 11.9264H21.0453Z" fill="white" stroke="white" stroke-width="0.2"/>
</svg>
