<svg width="26" height="26" viewBox="0 0 26 26" fill="none" xmlns="http://www.w3.org/2000/svg">
<rect x="1.00774" y="1.00762" width="23.6" height="23.6" rx="2.3" stroke="white" stroke-width="1.4"/>
<path d="M12.8077 6.36523C9.25561 6.36523 6.36584 9.255 6.36584 12.8071C6.36584 16.3591 9.25561 19.2487 12.8077 19.2487C16.3598 19.2487 19.2496 16.3591 19.2496 12.8071C19.2496 9.255 16.3598 6.36523 12.8077 6.36523ZM12.8077 17.0304C10.4788 17.0304 8.58397 15.1358 8.58397 12.807C8.58397 10.4779 10.4787 8.58321 12.8077 8.58321C15.1367 8.58321 17.0315 10.4779 17.0315 12.807C17.0315 15.1358 15.1366 17.0304 12.8077 17.0304Z" stroke="white" stroke-width="1.2"/>
<path d="M18.7939 5.38789L18.794 5.38789L18.796 5.38581C18.9843 5.19666 19.2508 5.08633 19.5198 5.08633C19.7907 5.08633 20.0571 5.19691 20.245 5.38571L20.245 5.38572L20.2471 5.38779C20.4358 5.57566 20.5464 5.84207 20.5464 6.11295C20.5464 6.38156 20.4364 6.6485 20.2465 6.83864C20.0548 7.0291 19.7884 7.13957 19.5198 7.13957C19.2519 7.13957 18.9845 7.02855 18.7951 6.83915C18.6039 6.64796 18.4932 6.38053 18.4932 6.11295C18.4932 5.84334 18.6042 5.57661 18.7939 5.38789Z" stroke="white" stroke-width="1.2"/>
</svg>
