<svg width="24" height="24" viewBox="0 0 24 24" fill="none" xmlns="http://www.w3.org/2000/svg">
<path d="M20.5141 16.8322L18.0392 14.2714C18.0369 14.269 18.0345 14.2667 18.0322 14.2643C17.3452 13.5774 16.2334 13.5773 15.5465 14.2643L14.4165 15.3942C13.8962 15.9146 13.0539 15.9147 12.5334 15.3942C12.5332 15.394 12.533 15.3937 12.5327 15.3935L8.60334 11.557C8.08295 11.0366 8.08287 10.1943 8.60334 9.6739L9.73322 8.54402C10.4186 7.85871 10.4186 6.7436 9.73322 6.05829L7.24748 3.57255C6.56213 2.88728 5.44706 2.88728 4.76175 3.57255C4.76151 3.57278 3.933 4.40134 3.93319 4.4011C3.933 4.40134 3.85808 4.47622 3.85788 4.47645C1.38101 6.95328 1.38011 10.9624 3.85827 13.4405L10.6503 20.1397C13.1217 22.611 17.124 22.6202 19.6053 20.1484C19.6189 20.1358 20.497 19.327 20.5101 19.3139C21.1941 18.6299 21.1954 17.5178 20.5141 16.8322ZM5.59034 4.4011C5.81877 4.17266 6.19045 4.17266 6.41889 4.4011L8.90463 6.88684C9.13361 7.11586 9.13365 7.48641 8.90463 7.71543L8.49037 8.12969L5.17604 4.8154L5.59034 4.4011ZM11.4785 19.3107L4.68643 12.6116C2.77245 10.6976 2.68167 7.67938 4.36311 5.65961L7.6658 8.9623C6.80077 9.94437 6.83674 11.4476 7.77549 12.3863L11.7056 16.2235C12.6449 17.1621 14.1433 17.2007 15.1282 16.3318L18.4307 19.6342C16.391 21.3286 13.3909 21.2231 11.4785 19.3107ZM19.6885 18.4783L19.2947 18.8411L15.9607 15.5071L16.375 15.0929C16.6032 14.8647 16.9716 14.864 17.2007 15.0899C17.2052 15.0947 19.6769 17.6521 19.6815 17.6567C19.9077 17.8829 19.91 18.2493 19.6885 18.4783Z" fill="white"/>
<path d="M12.0397 1.99927C11.7161 1.99927 11.4538 2.26161 11.4538 2.58516C11.4538 2.90872 11.7161 3.17106 12.0397 3.17106C16.8856 3.17106 20.8281 7.11352 20.8281 11.9594C20.8281 12.283 21.0904 12.5453 21.414 12.5453C21.7375 12.5453 21.9999 12.283 21.9999 11.9594C21.9999 6.45442 17.5452 1.99927 12.0397 1.99927Z" fill="white"/>
<path d="M12.0397 4.3429C11.7161 4.3429 11.4538 4.60524 11.4538 4.92879C11.4538 5.25235 11.7161 5.51469 12.0397 5.51469C15.5934 5.51469 18.4845 8.40581 18.4845 11.9595C18.4845 12.2831 18.7469 12.5454 19.0704 12.5454C19.394 12.5454 19.6563 12.2831 19.6563 11.9595C19.6563 7.75972 16.2395 4.3429 12.0397 4.3429Z" fill="white"/>
<path d="M12.0397 6.68652C11.7161 6.68652 11.4538 6.94887 11.4538 7.27242C11.4538 7.59597 11.7161 7.85832 12.0397 7.85832C14.3011 7.85832 16.1409 9.69811 16.1409 11.9595C16.1409 12.2831 16.4033 12.5454 16.7268 12.5454C17.0504 12.5454 17.3127 12.2831 17.3127 11.9595C17.3127 9.05198 14.9473 6.68652 12.0397 6.68652Z" fill="white"/>
<g filter="url(#filter0_d_1024:138)">
<path d="M12.0397 9.03003C11.7161 9.03003 11.4538 9.29237 11.4538 9.61592C11.4538 9.93948 11.7161 10.2018 12.0397 10.2018C13.0089 10.2018 13.7974 10.9903 13.7974 11.9595C13.7974 12.2831 14.0597 12.5454 14.3833 12.5454C14.7068 12.5454 14.9692 12.2831 14.9692 11.9595C14.9691 10.3442 13.655 9.03003 12.0397 9.03003Z" fill="white"/>
</g>
<defs>
<filter id="filter0_d_1024:138" x="7.4538" y="9.03003" width="11.5154" height="11.5154" filterUnits="userSpaceOnUse" color-interpolation-filters="sRGB">
<feFlood flood-opacity="0" result="BackgroundImageFix"/>
<feColorMatrix in="SourceAlpha" type="matrix" values="0 0 0 0 0 0 0 0 0 0 0 0 0 0 0 0 0 0 127 0" result="hardAlpha"/>
<feOffset dy="4"/>
<feGaussianBlur stdDeviation="2"/>
<feColorMatrix type="matrix" values="0 0 0 0 0 0 0 0 0 0 0 0 0 0 0 0 0 0 0.25 0"/>
<feBlend mode="normal" in2="BackgroundImageFix" result="effect1_dropShadow_1024:138"/>
<feBlend mode="normal" in="SourceGraphic" in2="effect1_dropShadow_1024:138" result="shape"/>
</filter>
</defs>
</svg>
