<svg width="29" height="20" viewBox="0 0 29 20" fill="none" xmlns="http://www.w3.org/2000/svg">
<path d="M26.9661 3.23717L26.9668 3.23976C27.2487 4.26935 27.3922 5.90588 27.4618 7.3298C27.4962 8.03245 27.5119 8.66773 27.5191 9.12738C27.5227 9.35707 27.5241 9.54256 27.5246 9.67027C27.5249 9.73411 27.525 9.78349 27.5249 9.8167L27.5249 9.85418L27.5248 9.86343L27.5248 9.8656L27.5248 9.86607L27.5248 9.86612V9.86915V9.86921V9.86969L27.5248 9.87187L27.5248 9.8811L27.5247 9.91845C27.5246 9.95154 27.5243 10.0007 27.5237 10.0643C27.5226 10.1915 27.5204 10.3762 27.5159 10.6049C27.5069 11.0626 27.489 11.6953 27.4532 12.3955C27.3808 13.8126 27.2376 15.4458 26.966 16.4794C26.6969 17.4763 25.9094 18.2638 24.9124 18.5328C24.4232 18.6613 23.5139 18.7674 22.3758 18.8491C21.2531 18.9297 19.9558 18.9837 18.7217 19.0198C17.4886 19.0559 16.3234 19.0739 15.4661 19.0829C15.0376 19.0875 14.6863 19.0897 14.4423 19.0908C14.3203 19.0914 14.2252 19.0917 14.1606 19.0918L14.0872 19.0919L14.0686 19.092L14.0639 19.092H14.0628H14.0626L14.0625 19.692L14.0624 19.092H14.0622H14.0611L14.0565 19.092L14.0379 19.0919L13.9647 19.0918C13.9003 19.0917 13.8054 19.0914 13.6838 19.0908C13.4404 19.0896 13.09 19.0873 12.6624 19.0826C11.807 19.0732 10.644 19.0544 9.41253 19.0169C8.18006 18.9794 6.88382 18.9233 5.76039 18.8395C4.62035 18.7545 3.70849 18.6441 3.21501 18.5105L3.21415 18.5102C2.21609 18.2415 1.4279 17.4534 1.1588 16.4556C0.887446 15.4347 0.744122 13.8021 0.671619 12.3811C0.63582 11.6795 0.617898 11.0446 0.608936 10.585C0.604457 10.3554 0.602223 10.1699 0.601108 10.0421C0.600551 9.97822 0.600274 9.9288 0.600136 9.89554L0.600016 9.85799L0.600002 9.84871L0.6 9.84652L0.6 9.84604V9.846V9.84596V9.84592L0.6 9.84545L0.600002 9.84327L0.600016 9.83404L0.600136 9.79669C0.600274 9.76359 0.600551 9.71441 0.601108 9.65083C0.602223 9.52365 0.604457 9.33895 0.608935 9.11022C0.617896 8.65249 0.635818 8.01974 0.671616 7.31955C0.74407 5.90238 0.887305 4.26914 1.159 3.23566C1.42815 2.23743 2.24008 1.42706 3.21372 1.1588C3.70332 1.03046 4.61185 0.924504 5.74884 0.842876C6.8716 0.762269 8.16888 0.708259 9.40293 0.672163C10.636 0.636095 11.8013 0.618046 12.6586 0.609019C13.0871 0.604507 13.4384 0.602252 13.6824 0.601125C13.8043 0.600562 13.8995 0.600281 13.9641 0.60014L14.0375 0.600017L14.0561 0.600002L14.0607 0.6L14.0618 0.6H14.0621L14.0622 0L14.0622 0.6L14.0625 0.6L14.0636 0.6L14.0682 0.600002L14.0868 0.600018L14.1602 0.600146C14.2247 0.600291 14.3199 0.600584 14.4419 0.601169C14.6858 0.60234 15.0371 0.604684 15.4655 0.609373C16.3228 0.618755 17.4879 0.637513 18.7209 0.674996C19.9548 0.71251 21.2518 0.768636 22.3741 0.852385C23.5135 0.93741 24.4215 1.04772 24.9083 1.18092L24.9107 1.18155C25.909 1.4504 26.6976 2.23893 26.9661 3.23717ZM10.6593 14.0623V15.1003L11.5587 14.5823L18.8794 10.3659L19.7821 9.84598L18.8794 9.32605L11.5587 5.1097L10.6593 4.59166V5.62963V14.0623Z" stroke="white" stroke-width="1.2"/>
</svg>
